%FSLAX33Y33*%
%MOMM*%
%ADD10C,0.5*%
D10*
%LNpath-1*%
G01*
X11000Y29000D02*
X159000Y29000D01*
X159000Y240000*
X11000Y240000*
X11000Y29000*
%LNpath-2*%
X7500Y2500D02*
X162500Y2500D01*
G75*
G03*
X162500Y2500D02*
X167500Y7500I0J5000D01*
G01*
X167500Y7500D02*
X167500Y242500D01*
G75*
G03*
X167500Y242500D02*
X162500Y247500I-5000J0D01*
G01*
X162500Y247500D02*
X7500Y247500D01*
G75*
G03*
X7500Y247500D02*
X2500Y242500I0J-5000D01*
G01*
X2500Y242500D02*
X2500Y7500D01*
G75*
G03*
X2500Y7500D02*
X7500Y2500I5000J0D01*
G01*
X7500Y2500D02*
X7500Y2500D01*
%LNtop silkscreen_traces*%
%LNtext*%
G36*
X22354Y40000D02*
X47955Y106663D01*
X54727Y104063D01*
X53973Y100626D01*
X53079Y97202D01*
X52044Y93790D01*
X50869Y90391D01*
X43008Y69394D01*
X43008Y69394D01*
X67275Y69394D01*
X59805Y89219D01*
X58206Y93534D01*
X56826Y97446D01*
X55667Y100956D01*
X54727Y104063D01*
X47955Y106663D01*
X49844Y111582D01*
X60049Y111582D01*
X89346Y40000D01*
X78555Y40000D01*
X70205Y61680D01*
X40273Y61680D01*
X32412Y40000D01*
X22354Y40000D01*
X22354Y40000D01*
X93351Y58750D02*
X102580Y59531D01*
X103262Y56371D01*
X104283Y53629D01*
X105642Y51305D01*
X107340Y49399D01*
X109304Y47915D01*
X111460Y46854D01*
X113809Y46218D01*
X116349Y46006D01*
X119401Y46305D01*
X122209Y47202D01*
X124772Y48698D01*
X127091Y50791D01*
X129014Y53379D01*
X130387Y56357D01*
X131211Y59727D01*
X131486Y63486D01*
X131222Y67048D01*
X130430Y70212D01*
X129110Y72980D01*
X127262Y75352D01*
X124987Y77253D01*
X122386Y78611D01*
X119457Y79426D01*
X116203Y79697D01*
X114131Y79577D01*
X112162Y79215D01*
X110298Y78612D01*
X108537Y77769D01*
X106919Y76732D01*
X105485Y75553D01*
X104234Y74230D01*
X103166Y72764D01*
X94914Y73838D01*
X101847Y110606D01*
X137443Y110606D01*
X137443Y102207D01*
X108879Y102207D01*
X105021Y82969D01*
X108283Y84934D01*
X111625Y86338D01*
X115046Y87180D01*
X118546Y87461D01*
X123051Y87055D01*
X127189Y85837D01*
X130961Y83808D01*
X134367Y80967D01*
X137187Y77488D01*
X139201Y73545D01*
X140409Y69138D01*
X140812Y64268D01*
X140458Y59574D01*
X139396Y55210D01*
X137626Y51176D01*
X135148Y47471D01*
X131391Y43668D01*
X127006Y40952D01*
X121992Y39323D01*
X116349Y38779D01*
X111691Y39121D01*
X107481Y40146D01*
X103720Y41855D01*
X100407Y44248D01*
X97650Y47205D01*
X95555Y50608D01*
X94122Y54456D01*
X93351Y58750D01*
X93351Y58750D01*
X108037Y226508D02*
X108145Y226523D01*
X108149Y226475D01*
X108157Y226435D01*
X108169Y226404D01*
X108184Y226380D01*
X108203Y226363D01*
X108226Y226351D01*
X108251Y226344D01*
X108280Y226342D01*
X108302Y226343D01*
X108322Y226347D01*
X108341Y226353D01*
X108358Y226363D01*
X108374Y226374D01*
X108386Y226387D01*
X108396Y226402D01*
X108404Y226419D01*
X108409Y226439D01*
X108413Y226465D01*
X108415Y226496D01*
X108416Y226533D01*
X108416Y227159D01*
X108536Y227159D01*
X108536Y226540D01*
X108535Y226486D01*
X108530Y226438D01*
X108521Y226397D01*
X108509Y226363D01*
X108493Y226333D01*
X108473Y226308D01*
X108449Y226286D01*
X108421Y226267D01*
X108390Y226253D01*
X108356Y226243D01*
X108320Y226237D01*
X108281Y226234D01*
X108225Y226239D01*
X108175Y226252D01*
X108133Y226273D01*
X108098Y226303D01*
X108070Y226342D01*
X108051Y226389D01*
X108039Y226444D01*
X108037Y226508D01*
X108037Y226508D01*
X108728Y226250D02*
X108728Y227159D01*
X108848Y227159D01*
X108848Y226357D01*
X109296Y226357D01*
X109296Y226250D01*
X108728Y226250D01*
X108728Y226250D01*
X110088Y226569D02*
X110208Y226538D01*
X110186Y226469D01*
X110155Y226408D01*
X110118Y226356D01*
X110072Y226312D01*
X110020Y226278D01*
X109963Y226254D01*
X109900Y226239D01*
X109832Y226234D01*
X109762Y226238D01*
X109699Y226249D01*
X109642Y226268D01*
X109593Y226294D01*
X109550Y226328D01*
X109512Y226368D01*
X109479Y226414D01*
X109453Y226468D01*
X109432Y226525D01*
X109417Y226585D01*
X109408Y226647D01*
X109405Y226711D01*
X109408Y226780D01*
X109418Y226844D01*
X109435Y226904D01*
X109459Y226959D01*
X109489Y227009D01*
X109525Y227052D01*
X109566Y227089D01*
X109613Y227120D01*
X109665Y227144D01*
X109718Y227161D01*
X109775Y227171D01*
X109834Y227175D01*
X109899Y227170D01*
X109959Y227157D01*
X110014Y227136D01*
X110063Y227105D01*
X110106Y227067D01*
X110142Y227022D01*
X110171Y226969D01*
X110193Y226910D01*
X110074Y226882D01*
X110057Y226928D01*
X110036Y226968D01*
X110011Y227000D01*
X109983Y227026D01*
X109951Y227046D01*
X109915Y227060D01*
X109875Y227069D01*
X109831Y227072D01*
X109781Y227069D01*
X109735Y227059D01*
X109693Y227043D01*
X109656Y227021D01*
X109623Y226994D01*
X109596Y226963D01*
X109574Y226927D01*
X109557Y226887D01*
X109545Y226844D01*
X109536Y226801D01*
X109530Y226757D01*
X109529Y226712D01*
X109531Y226656D01*
X109537Y226603D01*
X109548Y226555D01*
X109562Y226510D01*
X109582Y226469D01*
X109606Y226434D01*
X109634Y226404D01*
X109668Y226380D01*
X109704Y226362D01*
X109742Y226348D01*
X109781Y226340D01*
X109822Y226337D01*
X109871Y226341D01*
X109915Y226352D01*
X109956Y226370D01*
X109993Y226396D01*
X110025Y226428D01*
X110052Y226468D01*
X110073Y226515D01*
X110088Y226569D01*
X110088Y226569D01*
X110295Y226508D02*
X110404Y226523D01*
X110408Y226475D01*
X110416Y226435D01*
X110427Y226404D01*
X110443Y226380D01*
X110462Y226363D01*
X110484Y226351D01*
X110510Y226344D01*
X110539Y226342D01*
X110561Y226343D01*
X110581Y226347D01*
X110600Y226353D01*
X110617Y226363D01*
X110632Y226374D01*
X110645Y226387D01*
X110655Y226402D01*
X110662Y226419D01*
X110668Y226439D01*
X110672Y226465D01*
X110674Y226496D01*
X110675Y226533D01*
X110675Y227159D01*
X110795Y227159D01*
X110795Y226540D01*
X110793Y226486D01*
X110788Y226438D01*
X110779Y226397D01*
X110767Y226363D01*
X110752Y226333D01*
X110732Y226308D01*
X110708Y226286D01*
X110680Y226267D01*
X110649Y226253D01*
X110615Y226243D01*
X110578Y226237D01*
X110539Y226234D01*
X110483Y226239D01*
X110434Y226252D01*
X110391Y226273D01*
X110356Y226303D01*
X110329Y226342D01*
X110309Y226389D01*
X110298Y226444D01*
X110295Y226508D01*
X110295Y226508D01*
X110987Y226250D02*
X110987Y227159D01*
X111107Y227159D01*
X111107Y226357D01*
X111555Y226357D01*
X111555Y226250D01*
X110987Y226250D01*
X110987Y226250D01*
X112347Y226569D02*
X112467Y226538D01*
X112444Y226469D01*
X112414Y226408D01*
X112376Y226356D01*
X112331Y226312D01*
X112279Y226278D01*
X112221Y226254D01*
X112159Y226239D01*
X112090Y226234D01*
X112020Y226238D01*
X111957Y226249D01*
X111901Y226268D01*
X111851Y226294D01*
X111808Y226328D01*
X111770Y226368D01*
X111738Y226414D01*
X111711Y226468D01*
X111690Y226525D01*
X111675Y226585D01*
X111666Y226647D01*
X111663Y226711D01*
X111667Y226780D01*
X111677Y226844D01*
X111694Y226904D01*
X111717Y226959D01*
X111747Y227009D01*
X111783Y227052D01*
X111825Y227089D01*
X111872Y227120D01*
X111923Y227144D01*
X111977Y227161D01*
X112033Y227171D01*
X112092Y227175D01*
X112158Y227170D01*
X112218Y227157D01*
X112272Y227136D01*
X112322Y227105D01*
X112365Y227067D01*
X112401Y227022D01*
X112429Y226969D01*
X112451Y226910D01*
X112333Y226882D01*
X112315Y226928D01*
X112294Y226968D01*
X112269Y227000D01*
X112241Y227026D01*
X112209Y227046D01*
X112173Y227060D01*
X112133Y227069D01*
X112090Y227072D01*
X112040Y227069D01*
X111994Y227059D01*
X111952Y227043D01*
X111915Y227021D01*
X111882Y226994D01*
X111855Y226963D01*
X111833Y226927D01*
X111816Y226887D01*
X111803Y226844D01*
X111794Y226801D01*
X111789Y226757D01*
X111787Y226712D01*
X111789Y226656D01*
X111796Y226603D01*
X111806Y226555D01*
X111821Y226510D01*
X111840Y226469D01*
X111864Y226434D01*
X111893Y226404D01*
X111926Y226380D01*
X111962Y226362D01*
X112000Y226348D01*
X112040Y226340D01*
X112080Y226337D01*
X112129Y226341D01*
X112174Y226352D01*
X112215Y226370D01*
X112252Y226396D01*
X112284Y226428D01*
X112310Y226468D01*
X112331Y226515D01*
X112347Y226569D01*
X112347Y226569D01*
X112554Y226508D02*
X112662Y226523D01*
X112666Y226475D01*
X112674Y226435D01*
X112686Y226404D01*
X112701Y226380D01*
X112720Y226363D01*
X112743Y226351D01*
X112768Y226344D01*
X112797Y226342D01*
X112819Y226343D01*
X112840Y226347D01*
X112858Y226353D01*
X112875Y226363D01*
X112891Y226374D01*
X112903Y226387D01*
X112913Y226402D01*
X112921Y226419D01*
X112926Y226439D01*
X112930Y226465D01*
X112932Y226496D01*
X112933Y226533D01*
X112933Y227159D01*
X113053Y227159D01*
X113053Y226540D01*
X113052Y226486D01*
X113047Y226438D01*
X113038Y226397D01*
X113026Y226363D01*
X113010Y226333D01*
X112990Y226308D01*
X112966Y226286D01*
X112938Y226267D01*
X112907Y226253D01*
X112873Y226243D01*
X112837Y226237D01*
X112798Y226234D01*
X112742Y226239D01*
X112692Y226252D01*
X112650Y226273D01*
X112615Y226303D01*
X112587Y226342D01*
X112568Y226389D01*
X112557Y226444D01*
X112554Y226508D01*
X112554Y226508D01*
X113245Y226250D02*
X113245Y227159D01*
X113365Y227159D01*
X113365Y226357D01*
X113813Y226357D01*
X113813Y226250D01*
X113245Y226250D01*
X113245Y226250D01*
X114605Y226569D02*
X114725Y226538D01*
X114703Y226469D01*
X114672Y226408D01*
X114635Y226356D01*
X114589Y226312D01*
X114537Y226278D01*
X114480Y226254D01*
X114417Y226239D01*
X114349Y226234D01*
X114279Y226238D01*
X114216Y226249D01*
X114159Y226268D01*
X114110Y226294D01*
X114067Y226328D01*
X114029Y226368D01*
X113997Y226414D01*
X113970Y226468D01*
X113949Y226525D01*
X113934Y226585D01*
X113925Y226647D01*
X113922Y226711D01*
X113925Y226780D01*
X113935Y226844D01*
X113952Y226904D01*
X113976Y226959D01*
X114006Y227009D01*
X114042Y227052D01*
X114083Y227089D01*
X114130Y227120D01*
X114182Y227144D01*
X114236Y227161D01*
X114292Y227171D01*
X114351Y227175D01*
X114416Y227170D01*
X114476Y227157D01*
X114531Y227136D01*
X114580Y227105D01*
X114623Y227067D01*
X114659Y227022D01*
X114688Y226969D01*
X114710Y226910D01*
X114591Y226882D01*
X114574Y226928D01*
X114553Y226968D01*
X114528Y227000D01*
X114500Y227026D01*
X114468Y227046D01*
X114432Y227060D01*
X114392Y227069D01*
X114348Y227072D01*
X114298Y227069D01*
X114252Y227059D01*
X114210Y227043D01*
X114173Y227021D01*
X114141Y226994D01*
X114113Y226963D01*
X114091Y226927D01*
X114074Y226887D01*
X114062Y226844D01*
X114053Y226801D01*
X114047Y226757D01*
X114046Y226712D01*
X114048Y226656D01*
X114054Y226603D01*
X114065Y226555D01*
X114079Y226510D01*
X114099Y226469D01*
X114123Y226434D01*
X114151Y226404D01*
X114185Y226380D01*
X114221Y226362D01*
X114259Y226348D01*
X114298Y226340D01*
X114339Y226337D01*
X114388Y226341D01*
X114432Y226352D01*
X114473Y226370D01*
X114510Y226396D01*
X114542Y226428D01*
X114569Y226468D01*
X114590Y226515D01*
X114605Y226569D01*
X114605Y226569D01*
X114812Y226508D02*
X114921Y226523D01*
X114925Y226475D01*
X114933Y226435D01*
X114944Y226404D01*
X114960Y226380D01*
X114979Y226363D01*
X115001Y226351D01*
X115027Y226344D01*
X115056Y226342D01*
X115078Y226343D01*
X115098Y226347D01*
X115117Y226353D01*
X115134Y226363D01*
X115149Y226374D01*
X115162Y226387D01*
X115172Y226402D01*
X115179Y226419D01*
X115185Y226439D01*
X115189Y226465D01*
X115191Y226496D01*
X115192Y226533D01*
X115192Y227159D01*
X115312Y227159D01*
X115312Y226540D01*
X115310Y226486D01*
X115305Y226438D01*
X115296Y226397D01*
X115284Y226363D01*
X115269Y226333D01*
X115249Y226308D01*
X115225Y226286D01*
X115197Y226267D01*
X115166Y226253D01*
X115132Y226243D01*
X115096Y226237D01*
X115056Y226234D01*
X115000Y226239D01*
X114951Y226252D01*
X114909Y226273D01*
X114873Y226303D01*
X114846Y226342D01*
X114826Y226389D01*
X114815Y226444D01*
X114812Y226508D01*
X114812Y226508D01*
X115504Y226250D02*
X115504Y227159D01*
X115624Y227159D01*
X115624Y226357D01*
X116072Y226357D01*
X116072Y226250D01*
X115504Y226250D01*
X115504Y226250D01*
X116864Y226569D02*
X116984Y226538D01*
X116961Y226469D01*
X116931Y226408D01*
X116893Y226356D01*
X116848Y226312D01*
X116796Y226278D01*
X116739Y226254D01*
X116676Y226239D01*
X116607Y226234D01*
X116537Y226238D01*
X116474Y226249D01*
X116418Y226268D01*
X116368Y226294D01*
X116325Y226328D01*
X116287Y226368D01*
X116255Y226414D01*
X116228Y226468D01*
X116207Y226525D01*
X116192Y226585D01*
X116183Y226647D01*
X116180Y226711D01*
X116184Y226780D01*
X116194Y226844D01*
X116211Y226904D01*
X116234Y226959D01*
X116264Y227009D01*
X116300Y227052D01*
X116342Y227089D01*
X116389Y227120D01*
X116440Y227144D01*
X116494Y227161D01*
X116550Y227171D01*
X116609Y227175D01*
X116675Y227170D01*
X116735Y227157D01*
X116790Y227136D01*
X116839Y227105D01*
X116882Y227067D01*
X116918Y227022D01*
X116947Y226969D01*
X116968Y226910D01*
X116850Y226882D01*
X116832Y226928D01*
X116811Y226968D01*
X116786Y227000D01*
X116758Y227026D01*
X116726Y227046D01*
X116690Y227060D01*
X116650Y227069D01*
X116607Y227072D01*
X116557Y227069D01*
X116511Y227059D01*
X116469Y227043D01*
X116432Y227021D01*
X116399Y226994D01*
X116372Y226963D01*
X116350Y226927D01*
X116333Y226887D01*
X116320Y226844D01*
X116311Y226801D01*
X116306Y226757D01*
X116304Y226712D01*
X116306Y226656D01*
X116313Y226603D01*
X116323Y226555D01*
X116338Y226510D01*
X116357Y226469D01*
X116381Y226434D01*
X116410Y226404D01*
X116443Y226380D01*
X116480Y226362D01*
X116517Y226348D01*
X116557Y226340D01*
X116598Y226337D01*
X116646Y226341D01*
X116691Y226352D01*
X116732Y226370D01*
X116769Y226396D01*
X116801Y226428D01*
X116827Y226468D01*
X116848Y226515D01*
X116864Y226569D01*
X116864Y226569D01*
G37*
M02*